<mxfile host="app.diagrams.net" modified="2021-12-12T16:01:55.554Z" agent="5.0 (Macintosh; Intel Mac OS X 10_14_6) AppleWebKit/537.36 (KHTML, like Gecko) Chrome/95.0.4638.69 Safari/537.36" etag="NnQxFGKqQlG7g4ffZIVc" version="15.9.4" type="github">
  <diagram id="C5RBs43oDa-KdzZeNtuy" name="Page-1">
    <mxGraphModel dx="1186" dy="649" grid="0" gridSize="10" guides="1" tooltips="1" connect="1" arrows="1" fold="1" page="1" pageScale="1" pageWidth="827" pageHeight="1169" math="0" shadow="0">
      <root>
        <mxCell id="WIyWlLk6GJQsqaUBKTNV-0" />
        <mxCell id="WIyWlLk6GJQsqaUBKTNV-1" parent="WIyWlLk6GJQsqaUBKTNV-0" />
        <mxCell id="pTj7rmkQYzRkMDCX8saC-1" value="" style="edgeStyle=orthogonalEdgeStyle;rounded=0;orthogonalLoop=1;jettySize=auto;html=1;fontColor=#4D4D4D;" edge="1" parent="WIyWlLk6GJQsqaUBKTNV-1" source="WIyWlLk6GJQsqaUBKTNV-3" target="pTj7rmkQYzRkMDCX8saC-0">
          <mxGeometry relative="1" as="geometry" />
        </mxCell>
        <mxCell id="WIyWlLk6GJQsqaUBKTNV-3" value="&lt;pre style=&quot;font-family: &amp;#34;jetbrains mono&amp;#34; ; font-size: 10.5pt&quot;&gt;&lt;span style=&quot;background-color: rgb(151 , 208 , 119)&quot;&gt;start_kernel&lt;/span&gt;&lt;/pre&gt;" style="rounded=1;whiteSpace=wrap;html=1;fontSize=12;glass=0;strokeWidth=1;shadow=0;fillColor=#97D077;" parent="WIyWlLk6GJQsqaUBKTNV-1" vertex="1">
          <mxGeometry x="192" y="80" width="120" height="40" as="geometry" />
        </mxCell>
        <mxCell id="pTj7rmkQYzRkMDCX8saC-3" value="" style="edgeStyle=orthogonalEdgeStyle;rounded=0;orthogonalLoop=1;jettySize=auto;html=1;fontColor=#4D4D4D;" edge="1" parent="WIyWlLk6GJQsqaUBKTNV-1" source="pTj7rmkQYzRkMDCX8saC-0" target="pTj7rmkQYzRkMDCX8saC-2">
          <mxGeometry relative="1" as="geometry" />
        </mxCell>
        <mxCell id="pTj7rmkQYzRkMDCX8saC-7" value="" style="edgeStyle=orthogonalEdgeStyle;rounded=0;orthogonalLoop=1;jettySize=auto;html=1;fontColor=#4D4D4D;" edge="1" parent="WIyWlLk6GJQsqaUBKTNV-1" source="pTj7rmkQYzRkMDCX8saC-0" target="pTj7rmkQYzRkMDCX8saC-6">
          <mxGeometry relative="1" as="geometry" />
        </mxCell>
        <mxCell id="pTj7rmkQYzRkMDCX8saC-0" value="&lt;pre style=&quot;font-family: &amp;#34;jetbrains mono&amp;#34; ; font-size: 10.5pt&quot;&gt;init_timers&lt;/pre&gt;" style="rounded=1;whiteSpace=wrap;html=1;fontSize=12;glass=0;strokeWidth=1;shadow=0;fillColor=#97D077;" vertex="1" parent="WIyWlLk6GJQsqaUBKTNV-1">
          <mxGeometry x="192" y="148" width="120" height="40" as="geometry" />
        </mxCell>
        <mxCell id="pTj7rmkQYzRkMDCX8saC-5" value="" style="edgeStyle=orthogonalEdgeStyle;rounded=0;orthogonalLoop=1;jettySize=auto;html=1;fontColor=#4D4D4D;" edge="1" parent="WIyWlLk6GJQsqaUBKTNV-1" source="pTj7rmkQYzRkMDCX8saC-2" target="pTj7rmkQYzRkMDCX8saC-4">
          <mxGeometry relative="1" as="geometry" />
        </mxCell>
        <mxCell id="pTj7rmkQYzRkMDCX8saC-2" value="&lt;pre&gt;&lt;font face=&quot;jetbrains mono&quot;&gt;&lt;span style=&quot;font-size: 14px&quot;&gt;init_timer_cpus&lt;/span&gt;&lt;span style=&quot;font-size: 10.5pt&quot;&gt;&lt;br&gt;&lt;/span&gt;&lt;/font&gt;&lt;/pre&gt;" style="rounded=1;whiteSpace=wrap;html=1;fontSize=12;glass=0;strokeWidth=1;shadow=0;fillColor=#97D077;" vertex="1" parent="WIyWlLk6GJQsqaUBKTNV-1">
          <mxGeometry x="381" y="148" width="120" height="40" as="geometry" />
        </mxCell>
        <mxCell id="pTj7rmkQYzRkMDCX8saC-4" value="&lt;pre&gt;&lt;font face=&quot;jetbrains mono&quot;&gt;&lt;span style=&quot;font-size: 14px&quot;&gt;init_timer_cpu&lt;/span&gt;&lt;span style=&quot;font-size: 10.5pt&quot;&gt;&lt;br&gt;&lt;/span&gt;&lt;/font&gt;&lt;/pre&gt;" style="rounded=1;whiteSpace=wrap;html=1;fontSize=12;glass=0;strokeWidth=1;shadow=0;fillColor=#97D077;" vertex="1" parent="WIyWlLk6GJQsqaUBKTNV-1">
          <mxGeometry x="563" y="148" width="120" height="40" as="geometry" />
        </mxCell>
        <mxCell id="pTj7rmkQYzRkMDCX8saC-6" value="&lt;pre style=&quot;font-family: &amp;#34;jetbrains mono&amp;#34; ; font-size: 10.5pt&quot;&gt;open_softirq(1, run_timer_softirq);&lt;/pre&gt;" style="rounded=1;whiteSpace=wrap;html=1;fontSize=12;glass=0;strokeWidth=1;shadow=0;fillColor=#97D077;" vertex="1" parent="WIyWlLk6GJQsqaUBKTNV-1">
          <mxGeometry x="113" y="227" width="278" height="40" as="geometry" />
        </mxCell>
        <mxCell id="pTj7rmkQYzRkMDCX8saC-11" value="" style="edgeStyle=orthogonalEdgeStyle;rounded=0;orthogonalLoop=1;jettySize=auto;html=1;fontColor=#4D4D4D;" edge="1" parent="WIyWlLk6GJQsqaUBKTNV-1" source="pTj7rmkQYzRkMDCX8saC-8" target="pTj7rmkQYzRkMDCX8saC-10">
          <mxGeometry relative="1" as="geometry" />
        </mxCell>
        <mxCell id="pTj7rmkQYzRkMDCX8saC-8" value="&lt;pre style=&quot;font-family: &amp;#34;jetbrains mono&amp;#34; ; font-size: 10.5pt&quot;&gt;run_timer_softirq&lt;/pre&gt;" style="rounded=1;whiteSpace=wrap;html=1;fontSize=12;glass=0;strokeWidth=1;shadow=0;fillColor=#97D077;" vertex="1" parent="WIyWlLk6GJQsqaUBKTNV-1">
          <mxGeometry x="192" y="325" width="120" height="40" as="geometry" />
        </mxCell>
        <mxCell id="pTj7rmkQYzRkMDCX8saC-13" value="" style="edgeStyle=orthogonalEdgeStyle;rounded=0;orthogonalLoop=1;jettySize=auto;html=1;fontColor=#000000;" edge="1" parent="WIyWlLk6GJQsqaUBKTNV-1" source="pTj7rmkQYzRkMDCX8saC-10" target="pTj7rmkQYzRkMDCX8saC-12">
          <mxGeometry relative="1" as="geometry" />
        </mxCell>
        <mxCell id="pTj7rmkQYzRkMDCX8saC-10" value="&lt;pre style=&quot;font-family: &amp;#34;jetbrains mono&amp;#34; ; font-size: 10.5pt&quot;&gt;__run_timers(struct timer_base *base)&lt;/pre&gt;" style="rounded=1;whiteSpace=wrap;html=1;fontSize=12;glass=0;strokeWidth=1;shadow=0;fillColor=#97D077;" vertex="1" parent="WIyWlLk6GJQsqaUBKTNV-1">
          <mxGeometry x="121" y="400" width="260" height="40" as="geometry" />
        </mxCell>
        <mxCell id="pTj7rmkQYzRkMDCX8saC-15" value="" style="edgeStyle=orthogonalEdgeStyle;rounded=0;orthogonalLoop=1;jettySize=auto;html=1;fontColor=#000000;" edge="1" parent="WIyWlLk6GJQsqaUBKTNV-1" source="pTj7rmkQYzRkMDCX8saC-12" target="pTj7rmkQYzRkMDCX8saC-14">
          <mxGeometry relative="1" as="geometry" />
        </mxCell>
        <mxCell id="pTj7rmkQYzRkMDCX8saC-17" value="" style="edgeStyle=orthogonalEdgeStyle;rounded=0;orthogonalLoop=1;jettySize=auto;html=1;fontColor=#000000;" edge="1" parent="WIyWlLk6GJQsqaUBKTNV-1" source="pTj7rmkQYzRkMDCX8saC-12" target="pTj7rmkQYzRkMDCX8saC-16">
          <mxGeometry relative="1" as="geometry" />
        </mxCell>
        <mxCell id="pTj7rmkQYzRkMDCX8saC-12" value="&lt;pre style=&quot;font-family: &amp;#34;jetbrains mono&amp;#34; ; font-size: 10.5pt&quot;&gt;expire_timers&lt;/pre&gt;" style="rounded=1;whiteSpace=wrap;html=1;fontSize=12;glass=0;strokeWidth=1;shadow=0;fillColor=#97D077;" vertex="1" parent="WIyWlLk6GJQsqaUBKTNV-1">
          <mxGeometry x="122" y="490" width="260" height="40" as="geometry" />
        </mxCell>
        <mxCell id="pTj7rmkQYzRkMDCX8saC-14" value="&lt;pre style=&quot;font-family: &amp;#34;jetbrains mono&amp;#34; ; font-size: 10.5pt&quot;&gt;&lt;pre style=&quot;font-family: &amp;#34;jetbrains mono&amp;#34; ; font-size: 10.5pt&quot;&gt;&lt;pre style=&quot;font-family: &amp;#34;jetbrains mono&amp;#34; ; font-size: 10.5pt&quot;&gt;&lt;font style=&quot;background-color: rgb(151 , 208 , 119)&quot;&gt;call_timer_fn&lt;/font&gt;&lt;/pre&gt;&lt;/pre&gt;&lt;/pre&gt;" style="rounded=1;whiteSpace=wrap;html=1;fontSize=12;glass=0;strokeWidth=1;shadow=0;fillColor=#97D077;strokeColor=#97D077;" vertex="1" parent="WIyWlLk6GJQsqaUBKTNV-1">
          <mxGeometry x="122" y="580" width="260" height="40" as="geometry" />
        </mxCell>
        <mxCell id="pTj7rmkQYzRkMDCX8saC-16" value="&lt;pre style=&quot;font-family: &amp;#34;jetbrains mono&amp;#34; ; font-size: 10.5pt&quot;&gt;&lt;pre style=&quot;font-family: &amp;#34;jetbrains mono&amp;#34; ; font-size: 10.5pt&quot;&gt;&lt;font style=&quot;background-color: rgb(181 , 115 , 157)&quot;&gt;collect_expired_timers&lt;/font&gt;&lt;/pre&gt;&lt;/pre&gt;" style="rounded=1;whiteSpace=wrap;html=1;fontSize=12;glass=0;strokeWidth=1;shadow=0;fillColor=#B5739D;" vertex="1" parent="WIyWlLk6GJQsqaUBKTNV-1">
          <mxGeometry x="463" y="490" width="260" height="40" as="geometry" />
        </mxCell>
        <mxCell id="pTj7rmkQYzRkMDCX8saC-18" value="" style="shape=flexArrow;endArrow=classic;html=1;rounded=0;fontColor=#000000;entryX=0.5;entryY=0;entryDx=0;entryDy=0;" edge="1" parent="WIyWlLk6GJQsqaUBKTNV-1" source="pTj7rmkQYzRkMDCX8saC-6" target="pTj7rmkQYzRkMDCX8saC-8">
          <mxGeometry width="50" height="50" relative="1" as="geometry">
            <mxPoint x="461" y="369" as="sourcePoint" />
            <mxPoint x="511" y="319" as="targetPoint" />
          </mxGeometry>
        </mxCell>
      </root>
    </mxGraphModel>
  </diagram>
</mxfile>
